<svg id="Layer_1_1_" enable-background="new 0 0 64 64" height="512" viewBox="0 0 64 64" width="512" xmlns="http://www.w3.org/2000/svg"><path d="m39 3h-4-1c-1.105 0-2 .895-2 2s-.895 2-2 2h-8c-1.105 0-2-.895-2-2s-.895-2-2-2h-1-4c-2.761 0-5 2.239-5 5v48c0 2.761 2.239 5 5 5h26c2.761 0 5-2.239 5-5v-48c0-2.761-2.239-5-5-5z" fill="#c9c7c2"/><path d="m38 57h-24c-1.105 0-2-.895-2-2v-46c0-1.105.895-2 2-2h24c1.105 0 2 .895 2 2v46c0 1.105-.895 2-2 2z" fill="#ffedba"/><path d="m36 46c0 1.657-1.343 3-3 3h19c2.209 0 4-1.791 4-4v-2h-6-14z" fill="#e8e5df"/><path d="m30 21v25c0 1.657 1.343 3 3 3s3-1.343 3-3v-3h14v-22c0-2.209-1.791-4-4-4h-2-18c2.209 0 4 1.791 4 4z" fill="#fffcf5"/><path d="m20 5c0 1.105.895 2 2 2h8c1.105 0 2-.895 2-2s.895-2 2-2h-16c1.105 0 2 .895 2 2z" fill="#a19f9b"/><path d="m42.664 35.771c.834-1.031 1.336-2.342 1.336-3.771h-6z" fill="#febe07"/><path d="m38 38c1.885 0 3.564-.87 4.664-2.229l-4.664-3.771v-6c-3.314 0-6 2.686-6 6s2.686 6 6 6z" fill="#b18300"/><path d="m44 32c0-3.314-2.686-6-6-6v6z" fill="#ffd45a"/><path d="m16 21h11v18h-11z" fill="#febe07"/><path d="m37 57c-13.261 0-24.572-8.329-29-20.039v19.039c0 2.761 2.239 5 5 5h26c2.419 0 4.436-1.718 4.899-4z" fill="#b3b1ac" opacity=".35"/><path d="m44 49h-11c-1.657 0-3-1.343-3-3v-25c0-2.209-1.791-4-4-4h-1c2.209 0 4 1.791 4 4v1 24 1c0 1.657 1.343 3 3 3h12z" fill="#b3b1ac" opacity=".35"/><path d="m48 29h-2c-.553 0-1-.448-1-1s.447-1 1-1h2c.553 0 1 .448 1 1s-.447 1-1 1z" fill="#ffd45a"/><path d="m48 33h-2c-.553 0-1-.448-1-1s.447-1 1-1h2c.553 0 1 .448 1 1s-.447 1-1 1z" fill="#febe07"/><path d="m48 37h-2c-.553 0-1-.448-1-1s.447-1 1-1h2c.553 0 1 .448 1 1s-.447 1-1 1z" fill="#b18300"/><g fill="#fffcf5"><path d="m20 32v1c0 .552.448 1 1 1h1v1h2v-1h1c.552 0 1-.448 1-1v-3c0-.552-.448-1-1-1h-3v-1h4v-1c0-.552-.448-1-1-1h-1v-1h-2v1h-1c-.552 0-1 .448-1 1v3c0 .552.448 1 1 1h3v1z"/><path d="m27 42h-11c-.552 0-1 .448-1 1s.448 1 1 1h11c.552 0 1-.448 1-1s-.448-1-1-1z"/><path d="m27 46h-11c-.552 0-1 .448-1 1s.448 1 1 1h11c.552 0 1-.448 1-1s-.448-1-1-1z"/><path d="m27 50h-11c-.552 0-1 .448-1 1s.448 1 1 1h11c.552 0 1-.448 1-1s-.448-1-1-1z"/><path d="m16 11h11c.552 0 1-.448 1-1s-.448-1-1-1h-11c-.552 0-1 .448-1 1s.448 1 1 1z"/><path d="m27 13h-11c-.552 0-1 .448-1 1s.448 1 1 1h11c.552 0 1-.448 1-1s-.448-1-1-1z"/></g></svg>