<svg id="Layer_5" enable-background="new 0 0 64 64" height="512" viewBox="0 0 64 64" width="512" xmlns="http://www.w3.org/2000/svg"><path d="m28 62h-24c-1.105 0-2-.895-2-2v-20c0-1.105.895-2 2-2h24c1.105 0 2 .895 2 2v20c0 1.105-.895 2-2 2z" fill="#ecc19c"/><path d="m10 38h12v6h-4-4-4z" fill="#cf9e76"/><path d="m61.11 50.55c.54.28.89.84.89 1.45s-.35 1.17-.89 1.45l-9.11 4.55v-6-6z" fill="#aab2bd"/><path d="m30 52h22v6h-22z" fill="#b4dd7f"/><path d="m52 46v6h-22v-6h12z" fill="#ff826e"/><path d="m36 40h12c0 1.66-.67 3.16-1.76 4.24-1.08 1.09-2.58 1.76-4.24 1.76-3.31 0-6-2.69-6-6z" fill="#aab2bd"/><path d="m49 36c1.1 0 2 .9 2 2 0 .55-.22 1.05-.59 1.41-.36.37-.86.59-1.41.59h-1-12-1c-1.1 0-2-.9-2-2 0-.55.22-1.05.59-1.41.36-.37.86-.59 1.41-.59h1 3 3 3 3z" fill="#ccd1d9"/><path d="m42 2c-4.42 0-8.42 1.79-11.32 4.68-2.89 2.9-4.68 6.9-4.68 11.32v.21c0 3.74 1.31 7.36 3.71 10.24l6.29 7.55h12l6.29-7.55c2.4-2.88 3.71-6.5 3.71-10.24v-.21c0-8.84-7.16-16-16-16z" fill="#ffeaa7"/><path d="m42 36h-3l-7-23 6 2 4-3 4 3 6-2-7 23z" fill="#fcd770"/><path d="m13 57h2v2h-2z"/><path d="m5 57h2v2h-2z"/><path d="m9 57h2v2h-2z"/><path d="m5 53h10v2h-10z"/><path d="m61.553 49.658-9.317-4.658h-5.346c1.074-1.051 1.806-2.443 2.031-4h.079c1.654 0 3-1.346 3-3 0-1.307-.846-2.41-2.015-2.82l5.074-6.089c2.542-3.05 3.941-6.915 3.941-10.884v-.207c0-9.374-7.626-17-17-17-9.227 0-16.744 7.393-16.978 16.564l-6.436 6.436h-1.586v-6h-2v6h-2v-8h-2v8h-2v-4h-2v4h-2v-8h-2v8h-2v2h18.414l5.728-5.728c.397 3.227 1.701 6.302 3.798 8.818l5.074 6.089c-1.168.411-2.014 1.514-2.014 2.821 0 1.654 1.346 3 3 3h.08c.224 1.557.956 2.949 2.031 4h-6.111v-5c0-1.654-1.346-3-3-3h-24c-1.654 0-3 1.346-3 3v20c0 1.654 1.346 3 3 3h24c1.654 0 3-1.346 3-3v-1h21.236l9.316-4.658c.893-.446 1.448-1.343 1.448-2.342s-.555-1.896-1.447-2.342zm-34.553-31.451v-.207c0-8.271 6.729-15 15-15s15 6.729 15 15v.207c0 3.502-1.235 6.912-3.477 9.603l-5.991 7.19h-1.182l7.171-23.561-7.34 2.447-4.181-3.136-4.181 3.136-7.34-2.447 7.172 23.561h-1.182l-5.992-7.19c-2.242-2.691-3.477-6.101-3.477-9.603zm14-.207v17h-1.259l-6.22-20.439 4.66 1.553 3.819-2.864 3.819 2.864 4.66-1.553-6.22 20.439h-1.259v-17zm-7 20c0-.551.449-1 1-1h14c.551 0 1 .449 1 1s-.449 1-1 1h-14c-.551 0-1-.449-1-1zm3.101 3h9.798c-.465 2.279-2.484 4-4.899 4s-4.434-1.721-4.899-4zm13.899 6v4h-20v-4zm-34-6v2h-2v-2h-2v2h-2v-4h10v4h-2v-2zm12 19c0 .551-.449 1-1 1h-24c-.551 0-1-.449-1-1v-20c0-.551.449-1 1-1h5v6h14v-6h5c.551 0 1 .449 1 1zm2-7h20v4h-20zm29.658-.447-7.658 3.829v-8.764l7.659 3.829c.21.106.341.317.341.553s-.131.447-.342.553z"/></svg>