<svg id="flat" height="512" viewBox="0 0 512 512" width="512" xmlns="http://www.w3.org/2000/svg"><path d="m488 133.25v322.75a32.004 32.004 0 0 1 -32 32h-264a32.004 32.004 0 0 1 -32-32v-400a32.004 32.004 0 0 1 32-32h186.75a32.06422 32.06422 0 0 1 22.62 9.37l77.26 77.26a32.06422 32.06422 0 0 1 9.37 22.62z" fill="#548aff"/><g fill="#486be0"><path d="m432 104h-216a7.99977 7.99977 0 0 0 -8 8v296a7.99977 7.99977 0 0 0 8 8h216a7.99977 7.99977 0 0 0 8-8v-296a7.99977 7.99977 0 0 0 -8-8zm-8 48h-88v-32h88zm-88 64h88v136h-88zm-16 136h-96v-136h96zm16-152v-32h88v32zm-16-80v80h-96v-80zm-96 248h96v32h-96zm112 32v-32h88v32z"/><path d="m352 440h32v16h-32z"/><path d="m400 440h32v16h-32z"/><path d="m288 64h24v16h-24z"/><path d="m328 64h40v16h-40z"/></g><path d="m485.12 120h-61.12a32.004 32.004 0 0 1 -32-32v-61.12a31.82536 31.82536 0 0 1 9.37 6.49l77.26 77.26a31.82536 31.82536 0 0 1 6.49 9.37z" fill="#7dafff"/><rect fill="#7e57df" height="312" rx="32" width="224" x="24" y="176"/><path d="m64 360h48v96h-48z" fill="#f6bb00"/><path d="m64 312v48h48v96h96v-144z" fill="#4d6378"/><path d="m168 352v-40h-16v40h-32v-40h-16v40h-40v16h40v88h16v-40h32v40h16v-88h40v-16zm-48 48v-32h32v32z" fill="#42566b"/><path d="m56 264v-56h160v56l-48.47774 12.11943a129.96931 129.96931 0 0 1 -31.52226 3.88057 129.96931 129.96931 0 0 1 -31.52224-3.88057z" fill="#84d8e8"/><path d="m176 232h16v16h-16z" fill="#6dc1d6"/><path d="m144 232h16v16h-16z" fill="#6dc1d6"/><path d="m64 400h40v16h-40z" fill="#de9400"/></svg>