<svg id="flat" height="512" viewBox="0 0 512 512" width="512" xmlns="http://www.w3.org/2000/svg"><path d="m312.12 270.74-58.75-34.27-21.37-12.47h-112l-21.37 12.47-58.75 34.27a32 32 0 0 0 -15.88 27.64v189.62h304v-189.62a32 32 0 0 0 -15.88-27.64z" fill="#f6bb00"/><path d="m24 488h88a88.00138 88.00138 0 0 1 -88-88z" fill="#eda600"/><path d="m253.37 236.47-53.56 91.05-23.81 40.48-23.81-40.48-53.56-91.05 21.37-12.47h112z" fill="#e5e7e9"/><path d="m200 224h-48v32l16 32-15.81 39.52 23.81 40.48 23.81-40.48-15.81-39.52 16-32z" fill="#e33d3d"/><rect fill="#517ef7" height="256" rx="32" width="184" x="304" y="192"/><path d="m336 224h120v40h-120z" fill="#84d8e8"/><path d="m216 72v-24a24 24 0 0 0 -24-24h-32a56 56 0 0 0 -56 56v16l18.34315-18.34315a19.31369 19.31369 0 0 1 13.65685-5.65685 19.31369 19.31369 0 0 1 13.65684 5.65685l12.68631 12.6863a19.31366 19.31366 0 0 0 13.65685 5.65685 19.31369 19.31369 0 0 0 13.65684-5.65685l12.6863-12.6863a19.31369 19.31369 0 0 1 13.65686-5.65685z" fill="#b1792c"/><path d="m224 40a24 24 0 0 1 24 24v32l-18.34314-18.34315a19.3137 19.3137 0 0 0 -13.65686-5.65685v-24a8 8 0 0 1 8-8z" fill="#956625"/><path d="m248 96v80.00007a71.99993 71.99993 0 0 1 -71.99993 71.99993h-.00014a71.99993 71.99993 0 0 1 -71.99993-71.99993v-80.00007l18.34315-18.34315a19.31369 19.31369 0 0 1 13.65685-5.65685 19.31369 19.31369 0 0 1 13.65684 5.65685l12.68631 12.6863a19.31366 19.31366 0 0 0 13.65685 5.65685 19.31369 19.31369 0 0 0 13.65684-5.65685l12.6863-12.6863a19.31369 19.31369 0 0 1 13.65686-5.65685 19.31369 19.31369 0 0 1 13.65684 5.65685z" fill="#f5c99d"/><path d="m128 120h32v16h-32z" fill="#b1792c"/><path d="m184 296h-16a8 8 0 0 1 0-16h16a8 8 0 0 1 0 16z" fill="#c72626"/><path d="m456 448-30.19939 25.16616a64 64 0 0 1 -40.97181 14.83384h-80.8288v-40z" fill="#deae7e"/><path d="m336 336h40v80h-40z" fill="#f6bb00"/><path d="m376 416h80v-120h-120v40h40z" fill="#4d6378"/><path d="m336 368h48v16h-48z" fill="#eda600"/><path d="m424 328v-32h-16v32h-24v-32h-16v32h-32v16h32v72h16v-32h24v32h16v-72h32v-16zm-16 40h-24v-24h24z" fill="#42566b"/><path d="m240 432v56h-32v-61.65z" fill="#e5e7e9"/><path d="m131.83105 404.792a23.9738 23.9738 0 0 1 -19.83105-23.6421v-21.1499h-16v21.1499a39.95219 39.95219 0 0 0 33.0498 39.39844l121.41993 21.42236 2.78027-15.75683z" fill="#eda600"/><path d="m240 432 49.58347-35.41676a13.09672 13.09672 0 0 1 13.46935-1.05683 13.09675 13.09675 0 0 1 6.98537 14.28255l-6.03819 30.19104h17.35238a24 24 0 0 0 12.3479-3.42017l25.7926-15.47556a12.70649 12.70649 0 0 1 15.52227 1.91088 12.70648 12.70648 0 0 1 0 17.96968l-30.61315 30.61317a56 56 0 0 1 -39.598 16.402h-64.804z" fill="#f5c99d"/><circle cx="144" cy="152" fill="#956625" r="8"/><path d="m192 120h32v16h-32z" fill="#b1792c"/><circle cx="208" cy="152" fill="#956625" r="8"/><path d="m168 208h-8v-16h8a8.00917 8.00917 0 0 0 8-8v-16h16v16a24.0275 24.0275 0 0 1 -24 24z" fill="#c79369"/></svg>