<svg id="filled_outline" height="512" viewBox="0 0 512 512" width="512" xmlns="http://www.w3.org/2000/svg" data-name="filled outline"><path d="m344 240h112v104h-112z" fill="#486be0"/><path d="m240 240h104v104h-104z" fill="#517ef7"/><path d="m200 344h288v144h-288z" fill="#486be0"/><path d="m264 176h80v64h-80z" fill="#548aff"/><path d="m344 176h80v64h-80z" fill="#517ef7"/><path d="m288 112h112v64h-112z" fill="#548aff"/><path d="m376 112-16-24v-24a8 8 0 0 0 -8-8h-16a8 8 0 0 0 -8 8v24l-16 24z" fill="#639aff"/><path d="m24 360h256v128h-256z" fill="#02c26a"/><path d="m160 360a40 40 0 0 1 -40-40v-24h-80v24a40 40 0 0 0 40 40z" fill="#00b55b"/><path d="m488 336h-24v-96a8.00008 8.00008 0 0 0 -8-8h-24v-56a8.00008 8.00008 0 0 0 -8-8h-16v-56a8.00008 8.00008 0 0 0 -8-8h-19.71875l-12.28125-18.42236v-21.57764a16.01833 16.01833 0 0 0 -16-16v-32h-16v32a16.01833 16.01833 0 0 0 -16 16v21.57764l-12.28125 18.42236h-19.71875a8.00008 8.00008 0 0 0 -8 8v56h-16a8.00008 8.00008 0 0 0 -8 8v56h-16a8.00008 8.00008 0 0 0 -8 8v88h16v-80h88v88h-24v16h168v128h-168v16h176a8.00008 8.00008 0 0 0 8-8v-144a8.00008 8.00008 0 0 0 -8-8zm-72-104h-64v-48h64zm-81.34375-139.5625a7.99983 7.99983 0 0 0 1.34375-4.4375v-24h16v24a7.99983 7.99983 0 0 0 1.34375 4.4375l7.70801 11.5625h-34.10352zm-38.65625 27.5625h96v48h-96zm-24 112v-48h64v48zm80 16h96v88h-96z"/><path d="m264 264h16v16h-16z"/><path d="m296 264h16v16h-16z"/><path d="m264 296h16v16h-16z"/><path d="m376 264h16v16h-16z"/><path d="m408 264h16v16h-16z"/><path d="m408 296h16v16h-16z"/><path d="m376 296h16v16h-16z"/><path d="m296 296h16v16h-16z"/><path d="m296 200h16v16h-16z"/><path d="m376 200h16v16h-16z"/><path d="m320 136h16v16h-16z"/><path d="m352 136h16v16h-16z"/><path d="m352 376h16v16h-16z"/><path d="m392 376h16v16h-16z"/><path d="m432 376h16v16h-16z"/><path d="m352 408h16v16h-16z"/><path d="m392 408h16v16h-16z"/><path d="m432 408h16v16h-16z"/><path d="m352 440h16v16h-16z"/><path d="m312 376h16v16h-16z"/><path d="m312 408h16v16h-16z"/><path d="m312 440h16v16h-16z"/><path d="m392 440h16v16h-16z"/><path d="m432 440h16v16h-16z"/><path d="m24 496h256a8.00008 8.00008 0 0 0 8-8v-128a8.00008 8.00008 0 0 0 -8-8h-120a32.03635 32.03635 0 0 1 -32-32v-24a8.00008 8.00008 0 0 0 -8-8h-80a8.00008 8.00008 0 0 0 -8 8v24a47.80135 47.80135 0 0 0 12.26123 32h-20.26123a8.00008 8.00008 0 0 0 -8 8v128a8.00008 8.00008 0 0 0 8 8zm168-64h80v16h-80zm0-16v-16h80v16zm0 64v-16h80v16zm80-96h-80v-16h80zm-96-16v112h-48v-112zm-128-48v-16h64v16a47.80135 47.80135 0 0 0 12.26123 32h-44.26123a32.03635 32.03635 0 0 1 -32-32zm-16 48h80v16h-48v16h48v16h-48v16h48v16h-48v16h48v16h-80z"/></svg>