<?xml version="1.0"?>
<svg xmlns="http://www.w3.org/2000/svg" id="filled_outline" data-name="filled outline" viewBox="0 0 512 512" width="512" height="512"><title>employee-right-law-scale-avatar</title><polygon points="336 144 329.14 176.57 304 296 208 296 182.86 176.57 176 144 184 88 208 88 208 136 219.2 158.4 232 184 280 184 292.8 158.4 304 136 304 88 328 88 336 144" style="fill:#f6bb00"/><polygon points="304 296 312 488 288 488 256 352 224 488 200 488 208 296 304 296" style="fill:#4d6378"/><path d="M283.3137,75.3137l0,0A43.31367,43.31367,0,0,0,313.94111,88H456V64L333.232,56.77835a34.86279,34.86279,0,0,1-22.60452-10.15092l0,0A77.25476,77.25476,0,0,0,256,24H256a77.25476,77.25476,0,0,0-54.62736,22.62739l0,0A34.86279,34.86279,0,0,1,178.768,56.77835L56,64V88H198.05889a43.31367,43.31367,0,0,0,30.62739-12.68628l0,0A38.62739,38.62739,0,0,1,256,64h0A38.62739,38.62739,0,0,1,283.3137,75.3137Z" style="fill:#f6bb00"/><polygon points="219.2 158.4 182.86 176.57 176 144 184 88 208 88 208 136 219.2 158.4" style="fill:#f5c99d"/><polygon points="336 144 329.14 176.57 292.8 158.4 304 136 304 88 328 88 336 144" style="fill:#f5c99d"/><path d="M360,200H488v8.00006A63.99994,63.99994,0,0,1,424.00006,272h-.00012A63.99994,63.99994,0,0,1,360,208.00006Z" style="fill:#f6bb00"/><path d="M232,160v24a24,24,0,0,0,24,24h0a24,24,0,0,0,24-24V160Z" style="fill:#f5c99d"/><path d="M232,160h48V140.94426A12.94426,12.94426,0,0,0,267.05574,128h0a12.94424,12.94424,0,0,0-5.78885,1.36656L232,144Z" style="fill:#b1792c"/><path d="M24,200H152v8.00006A63.99994,63.99994,0,0,1,88.00006,272h-.00012A63.99994,63.99994,0,0,1,24,208.00006Z" style="fill:#f6bb00"/><path d="M88,280a72.08124,72.08124,0,0,0,72-72v-8a7.99977,7.99977,0,0,0-8-8H133.63757L99.35187,96h75.42419l-6.69549,46.86865a7.99444,7.99444,0,0,0,.09082,2.7793l31.79376,151.02026L192.00684,487.667A7.99972,7.99972,0,0,0,200,496h24a7.99936,7.99936,0,0,0,7.78711-6.16748L256,386.92822l24.21289,102.9043A7.99936,7.99936,0,0,0,288,496h24a7.99972,7.99972,0,0,0,7.99316-8.333l-7.95831-190.99878L343.82861,145.648a7.99444,7.99444,0,0,0,.09082-2.7793L337.22394,96h75.42419l-34.2857,96H360a7.99977,7.99977,0,0,0-8,8v8a72,72,0,0,0,144,0v-8a7.99977,7.99977,0,0,0-8-8H469.63757l-34.2857-96H456a7.99977,7.99977,0,0,0,8-8V64a8.00034,8.00034,0,0,0-7.53027-7.98633L333.70166,48.792a26.83773,26.83773,0,0,1-17.41748-7.82129,85.25428,85.25428,0,0,0-120.56836,0A26.83773,26.83773,0,0,1,178.29834,48.792L55.53027,56.01367A8.00034,8.00034,0,0,0,48,64V88a7.99977,7.99977,0,0,0,8,8H76.64813l-34.2857,96H24a7.99977,7.99977,0,0,0-8,8v8A72.08124,72.08124,0,0,0,88,280ZM234.34326,80.97021a30.628,30.628,0,0,1,43.31348,0l.00049.00049A51.14537,51.14537,0,0,0,296,92.77783v41.3335l-8,16.00018v-9.16717a20.94358,20.94358,0,0,0-30.31055-18.73291l-29.26709,14.6333A7.99924,7.99924,0,0,0,224,144v6.11151l-8-16.00018V92.77783A51.146,51.146,0,0,0,234.34326,80.97021ZM264,288V248H248v40H214.49121L191.95746,180.96533l23.66492-11.8324,8.44885,16.89771A32.06528,32.06528,0,0,0,248,214.98743V232h16V214.98743a32.06528,32.06528,0,0,0,23.92877-28.95679l8.44885-16.89771,23.66492,11.8324L297.50879,288Zm8-136H240v-3.05566L264.8457,136.522A4.94339,4.94339,0,0,1,272,140.94434Zm0,16v16a16,16,0,0,1-32,0V168ZM200,96v40a7.99583,7.99583,0,0,0,.84473,3.57764l7.62237,15.24475-19.91693,9.95843-4.431-21.04742L190.93848,96Zm94.33594,384L263.78711,350.16748a7.99977,7.99977,0,0,0-15.57422,0L217.66406,480h-9.32373l7.33338-176h80.65258l7.33338,176Zm33.54492-336.2666-4.431,21.04742-19.91693-9.95843,7.62237-15.24475A7.99583,7.99583,0,0,0,312,136V96h9.06152ZM424,264a56.06353,56.06353,0,0,1-56-56H480A56.06353,56.06353,0,0,1,424,264Zm-28.64813-72L424,111.78528,452.64813,192ZM64,71.54346l115.23779-6.77881A42.82033,42.82033,0,0,0,207.0293,52.28418a69.25539,69.25539,0,0,1,97.9414,0,42.82033,42.82033,0,0,0,27.79151,12.48047L448,71.54346V80H313.94092a35.08293,35.08293,0,0,1-24.97071-10.34326,46.62684,46.62684,0,0,0-65.94091.00049A35.08334,35.08334,0,0,1,198.05908,80H64Zm24,40.24182L116.64813,192H59.35187ZM144,208a56,56,0,0,1-112,0Z"/></svg>
