<svg id="Layer_1" height="512" viewBox="0 0 128 128" width="512" xmlns="http://www.w3.org/2000/svg" data-name="Layer 1"><path d="m103.81 7.02v114.48h-79.62v-115h74.81a22.435 22.435 0 0 1 4.81.52z" fill="#d7e4ef"/><path d="m103.81 7.02v114.48h-79.62v-115h74.81a22.435 22.435 0 0 1 4.81.52z" fill="#d7e4ef"/><path d="m121.5 29a22.5 22.5 0 1 1 -17.69-21.98 22.484 22.484 0 0 1 17.69 21.98z" fill="#ff4945"/><path d="m111.5 24h-7.5v-7.5h-10v7.5h-7.5v10h7.5v7.5h10v-7.5h7.5z" fill="#d7e4ef"/><g fill="#bdc8d2"><path d="m67.109 34.125h-26.609a2 2 0 0 1 0-4h26.609a2 2 0 0 1 0 4z"/><path d="m67.109 46.875h-26.609a2 2 0 0 1 0-4h26.609a2 2 0 0 1 0 4z"/><path d="m84 59.625h-43.5a2 2 0 0 1 0-4h43.5a2 2 0 0 1 0 4z"/><path d="m84 72.375h-43.5a2 2 0 0 1 0-4h43.5a2 2 0 0 1 0 4z"/><path d="m84 85.125h-43.5a2 2 0 0 1 0-4h43.5a2 2 0 0 1 0 4z"/><path d="m84 97.875h-43.5a2 2 0 0 1 0-4h43.5a2 2 0 0 1 0 4z"/></g></svg>