<svg height="512" viewBox="0 0 512 512" width="512" xmlns="http://www.w3.org/2000/svg"><g id="Flat"><rect fill="#91d3ee" height="320" rx="32" width="464" x="24" y="104"/><path d="m24 376h464a0 0 0 0 1 0 0v16a32 32 0 0 1 -32 32h-400a32 32 0 0 1 -32-32v-16a0 0 0 0 1 0 0z" fill="#37a5ca"/><path d="m64 136h384a8 8 0 0 1 8 8v232a0 0 0 0 1 0 0h-400a0 0 0 0 1 0 0v-232a8 8 0 0 1 8-8z" fill="#a9ca2a"/><circle cx="256" cy="400" fill="#2d80ba" r="8"/><path d="m224 424v32a32 32 0 0 1 -32 32h128a32 32 0 0 1 -32-32v-32z" fill="#91d3ee"/><path d="m296 312h-208v-288h144l64 64z" fill="#cbdbe7"/><g fill="#adb9c3"><path d="m232 24v64h64z"/><path d="m112 48h32v16h-32z"/><path d="m112 80h32v16h-32z"/><path d="m128 112h48v16h-48z"/><path d="m192 112h80v16h-80z"/><path d="m112 144h48v16h-48z"/><path d="m176 144h48v16h-48z"/><path d="m240 144h32v16h-32z"/><path d="m112 176h96v16h-96z"/><path d="m224 176h48v16h-48z"/><path d="m112 208h64v16h-64z"/></g><path d="m120 296h32v48h-32z" fill="#eb4042"/><path d="m176 272h32v72h-32z" fill="#f5c533"/><path d="m232 248h32v96h-32z" fill="#37a5ca"/><path d="m424 256a63.79962 63.79962 0 0 1 -18.74 45.26l-45.26-45.26 45.26-45.26a63.79962 63.79962 0 0 1 18.74 45.26z" fill="#f5c533"/><path d="m405.26 301.26a64.025 64.025 0 0 1 -90.52 0l45.26-45.26z" fill="#eb4042"/><path d="m405.26 210.74-90.52 90.52a64.00732 64.00732 0 0 1 90.52-90.52z" fill="#37a5ca"/></g></svg>